PathFileType	4	(X/Y/Z)	pose_F01_0-94.trc
DataRate	CameraRate	NumFrames	NumMarkers	Units	OrigDataRate	OrigDataStartFrame	OrigNumFrames
30	30	13	21	m	30	0	94
Frame#	Time	CHip			RHip			RKnee			RAnkle			RBigToe			RSmallToe			RHeel			LHip			LKnee			LAnkle			LBigToe			LSmallToe			LHeel			Neck			Nose			RShoulder			RElbow			RWrist			LShoulder			LElbow			LWrist			
		X1	Y1	Z1	X2	Y2	Z2	X3	Y3	Z3	X4	Y4	Z4	X5	Y5	Z5	X6	Y6	Z6	X7	Y7	Z7	X8	Y8	Z8	X9	Y9	Z9	X10	Y10	Z10	X11	Y11	Z11	X12	Y12	Z12	X13	Y13	Z13	X14	Y14	Z14	X15	Y15	Z15	X16	Y16	Z16	X17	Y17	Z17	X18	Y18	Z18	X19	Y19	Z19	X20	Y20	Z20	X21	Y21	Z21	
0	0.0	-0.25839556666862523	1.8960843251210298	-0.5685644504762667	-0.2695256141301277	1.9009696354074264	-0.4813823083750851	-0.2952877413608756	1.7277774476439676	-0.39314781465347226	-0.3257738292129916	1.6021503980656941	-0.36940706748204016							-0.32952533231943026	1.59001853922602	-0.3822508152780784	-0.2506213540876716	1.8977886177774528	-0.6055693518318663	-0.26437333644044975	1.7317843899031027	-0.6004587598892569													-0.26320414762191335	2.0526791550011665	-0.5878170342243418	-0.25334581627686487	2.11978073892853	-0.5336057913044826	-0.28532899680249585	2.0548670829123155	-0.49611234219997385	-0.3163912217394561	1.9408597126251024	-0.43056982022969204	-0.3421919249416174	1.8593488703642629	-0.3548452561443748	-0.24659225489697237	2.0570454251853514	-0.6738520626428993	-0.22880257840992288	1.9624391875293297	-0.7159969417485892	-0.21416096064938842	1.8835280860294705	-0.7477965755889954
1	0.03333333333333333	-0.2597406183908002	1.8926946826218243	-0.5629748865020963	-0.27165551586232717	1.8961670651323341	-0.4785983594849283	-0.2952877413608756	1.7277774476439676	-0.39314781465347226	-0.3257738292129916	1.6021503980656941	-0.36940706748204016							-0.32952533231943026	1.59001853922602	-0.3822508152780784	-0.25065347023669976	1.894719851410635	-0.6051132011936923	-0.26436575901684245	1.7315727480702947	-0.6004465814705617													-0.2641861802537363	2.0526472872639547	-0.582753328069067	-0.2533113695750217	2.1197986719997486	-0.5335344981545685	-0.2860512748834336	2.0535338335408526	-0.4904518944957412	-0.3131604517684627	1.9447847116528223	-0.4293721142851803	-0.3361315538612495	1.8631725000850337	-0.36057179893962	-0.2457410311246485	2.056898613459283	-0.6709495281188271	-0.22993149883551886	1.9631549556304673	-0.7107373278309693	-0.21558265965782225	1.8837291109941547	-0.7421902464560993
2	0.06666666666666667	-0.2610856701129752	1.8893050401226188	-0.5573853225279258	-0.2737854175945266	1.891364494857242	-0.4758144105947715	-0.2952877413608756	1.7277774476439676	-0.39314781465347226	-0.3257738292129916	1.6021503980656941	-0.36940706748204016							-0.32952533231943026	1.59001853922602	-0.3822508152780784	-0.2506855863857279	1.891651085043817	-0.6046570505555182	-0.2643581815932352	1.7313611062374867	-0.6004344030518667													-0.26516821288555925	2.052615419526743	-0.5776896219137921	-0.25327692287317854	2.1198166050709673	-0.5334632050046545	-0.2867735529643714	2.0522005841693898	-0.4847914467915086	-0.30992968179746927	1.9487097106805422	-0.42817440834066856	-0.3300711827808816	1.8669961298058044	-0.3662983417348652	-0.24488980735232466	2.0567518017332143	-0.668046993594755	-0.23106041926111484	1.9638707237316049	-0.7054777139133495	-0.2170043586662561	1.883930135958839	-0.7365839173232033
3	0.1	-0.26243072183515015	1.8859153976234133	-0.5517957585537554	-0.2759153193267261	1.8865619245821497	-0.47303046170461466	-0.2952877413608756	1.7277774476439676	-0.39314781465347226	-0.3257738292129916	1.6021503980656941	-0.36940706748204016							-0.32952533231943026	1.59001853922602	-0.3822508152780784	-0.25071770253475606	1.8885823186769992	-0.6042008999173442	-0.2643506041696279	1.7311494644046788	-0.6004222246331716													-0.2661502455173822	2.0525835517895312	-0.5726259157585173	-0.2532424761713354	2.119834538142186	-0.5333919118547404	-0.2874958310453092	2.050867334797927	-0.47913099908727597	-0.30669891182647585	1.9526347097082621	-0.4269767023961568	-0.3240108117005137	1.8708197595265752	-0.3720248845301104	-0.2440385835800008	2.0566049900071457	-0.6651444590706828	-0.23218933968671082	1.9645864918327425	-0.7002180999957296	-0.21842605767468992	1.8841311609235232	-0.7309775881903072
4	0.13333333333333333	-0.2637757735573251	1.8825257551242078	-0.546206194579585	-0.27804522105892554	1.8817593543070574	-0.47024651281445784	-0.2952877413608756	1.7277774476439676	-0.39314781465347226	-0.3257738292129916	1.6021503980656941	-0.36940706748204016							-0.32952533231943026	1.59001853922602	-0.3822508152780784	-0.2507498186837842	1.8855135523101814	-0.6037447492791701	-0.26434302674602067	1.7309378225718708	-0.6004100462144765													-0.26713227814920515	2.0525516840523195	-0.5675622096032424	-0.2532080294694922	2.1198524712134046	-0.5333206187048264	-0.28821810912624696	2.049534085426464	-0.47347055138304334	-0.30346814185548243	1.956559708735982	-0.4257789964516451	-0.3179504406201458	1.874643389247346	-0.3777514273253556	-0.24318735980767694	2.056458178281077	-0.6622419245466106	-0.2333182601123068	1.96530225993388	-0.6949584860781097	-0.21984775668312376	1.8843321858882074	-0.7253712590574112
5	0.16666666666666666	-0.2651208252795001	1.8791361126250024	-0.5406166306054145	-0.280175122791125	1.8769567840319652	-0.467462563924301	-0.2952877413608756	1.7277774476439676	-0.39314781465347226	-0.3257738292129916	1.6021503980656941	-0.36940706748204016							-0.32952533231943026	1.59001853922602	-0.3822508152780784	-0.25078193483281236	1.8824447859433635	-0.603288598640996	-0.2643354493224134	1.7307261807390628	-0.6003978677957814													-0.2681143107810281	2.0525198163151077	-0.5624985034479676	-0.25317358276764906	2.1198704042846233	-0.5332493255549123	-0.28894038720718473	2.0482008360550013	-0.4678101036788107	-0.300237371884489	1.960484707763702	-0.42458129050713334	-0.31189006953977794	1.8784670189681167	-0.3834779701206008	-0.2423361360353531	2.0563113665550086	-0.6593393900225384	-0.23444718053790278	1.9660180280350177	-0.6896988721604899	-0.2212694556915576	1.8845332108528916	-0.7197649299245151
6	0.2	-0.26646587700167507	1.8757464701257969	-0.5350270666312441	-0.28230502452332445	1.872154213756873	-0.4646786150341442	-0.2952877413608756	1.7277774476439676	-0.39314781465347226	-0.3257738292129916	1.6021503980656941	-0.36940706748204016							-0.32952533231943026	1.59001853922602	-0.3822508152780784	-0.2508140509818405	1.8793760195765457	-0.602832448002822	-0.2643354493224134	1.7307261807390628	-0.6003978677957814													-0.26909634341285105	2.052487948577896	-0.5574347972926927	-0.2531391360658059	2.119888337355842	-0.5331780324049983	-0.2896626652881225	2.0468675866835384	-0.4621496559745781	-0.2970066019134956	1.964409706791422	-0.4233835845626216	-0.30582969845941005	1.8822906486888875	-0.389204512915846	-0.24148491226302923	2.05616455482894	-0.6564368554984662	-0.23557610096349876	1.9667337961361553	-0.68443925824287	-0.22269115469999143	1.8847342358175758	-0.7141586007916191
7	0.23333333333333334	-0.2644547933426449	1.8759811252903715	-0.5369750574938452	-0.2793470909309722	1.8720191147882106	-0.4635448056636968	-0.2952877413608756	1.7277774476439676	-0.39314781465347226	-0.3257738292129916	1.6021503980656941	-0.36940706748204016							-0.32952533231943026	1.59001853922602	-0.3822508152780784	-0.24988415024814076	1.8792899868224466	-0.5997448541527959	-0.2643354493224134	1.7307261807390628	-0.6003978677957814													-0.2691005037956059	2.0525199290877865	-0.5574443373663157	-0.25313518725447076	2.1198746043103154	-0.5331300690324886	-0.289733420028007	2.048098431297018	-0.46267525528495074	-0.29665917962364263	1.9649234061692762	-0.42560258829827774	-0.305198018740381	1.8809657537522946	-0.39043061699836157	-0.2422144398642029	2.057536166777497	-0.6592212381699899	-0.2379638281663232	1.9665821097068055	-0.6824202534951831	-0.22337912961309314	1.8823894801577217	-0.7053099779430061
8	0.26666666666666666	-0.2660360110765723	1.8770889386128833	-0.5350993004213548	-0.27897796543047587	1.873410183381819	-0.4636664916629313	-0.2952877413608756	1.7277774476439676	-0.39314781465347226	-0.3257738292129916	1.6021503980656941	-0.36940706748204016							-0.32952533231943026	1.59001853922602	-0.3822508152780784	-0.2505956986319036	1.8794214446631108	-0.6027645446454325	-0.2643354493224134	1.7307261807390628	-0.6003978677957814													-0.27004772176016534	2.052634783577166	-0.5603278700240298	-0.2531178015888405	2.119897778680594	-0.5330847851372601	-0.29076005584034725	2.048235028646245	-0.465665155401653	-0.29631175733378967	1.9654371055471305	-0.4278215920339339	-0.3045663390213519	1.8796408588157014	-0.3916567210808772	-0.24224298696429047	2.057467525944958	-0.6591990535916229	-0.24002054579738633	1.9677921926698956	-0.6801144647751374	-0.22686593975709657	1.8851321296764556	-0.6978593146587556
9	0.3	-0.2661912566367485	1.875950518010069	-0.5348719995531933	-0.27921786528056863	1.873491695380613	-0.4637499477165903	-0.2952877413608756	1.7277774476439676	-0.39314781465347226	-0.3257738292129916	1.6021503980656941	-0.36940706748204016							-0.32952533231943026	1.59001853922602	-0.3822508152780784	-0.2520043639909669	1.8797180854837128	-0.597557197933581	-0.2643354493224134	1.7307261807390628	-0.6003978677957814													-0.27009176943979285	2.0525787872539185	-0.5603102752068034	-0.2531564761533039	2.1198656677135923	-0.5330386130335583	-0.2907750108474095	2.048222170526151	-0.46563996916050987	-0.29596433504393665	1.965950804924985	-0.4300405957695901	-0.3039346593023228	1.8783159638791085	-0.39288282516339273	-0.24427823392392983	2.0573554213873884	-0.6571249934182436	-0.23932718810871662	1.9664315061769502	-0.6769843129002291	-0.23068997866421545	1.8831554260575216	-0.6899576155110445
10	0.3333333333333333	-0.2642006513644392	1.8766603211017796	-0.5370842935168685	-0.2800566962854777	1.8726247480874725	-0.4667101191892749	-0.2952877413608756	1.7277774476439676	-0.39314781465347226	-0.3257738292129916	1.6021503980656941	-0.36940706748204016							-0.32952533231943026	1.59001853922602	-0.3822508152780784	-0.2507257829306165	1.8788919053004376	-0.6026047272975412	-0.2643354493224134	1.7307261807390628	-0.6003978677957814													-0.2691316005866787	2.052492798039755	-0.5574402208308206	-0.2522046769680169	2.1197713720369347	-0.5301834705004828	-0.29069281170431766	2.0493068942462975	-0.465583888093708	-0.2956169127540837	1.9664645043028393	-0.43225959950524623	-0.3033029795832937	1.8769910689425156	-0.3941089292459083	-0.24137608207510572	2.0573737587023833	-0.6563039632895303	-0.24252809691712438	1.9679265596871807	-0.669458614542737	-0.23356645442065016	1.885495308001732	-0.682528005331289
11	0.36666666666666664	-0.26485556652738546	1.8793492787185953	-0.5404891704230291	-0.2800621816818402	1.8759195633014318	-0.4671859093806195	-0.2952877413608756	1.7277774476439676	-0.39314781465347226	-0.3257738292129916	1.6021503980656941	-0.36940706748204016							-0.32952533231943026	1.59001853922602	-0.3822508152780784	-0.25067251561462317	1.8817139471276623	-0.6029789831200505	-0.2643354493224134	1.7307261807390628	-0.6003978677957814													-0.27008535427634245	2.0526966684168717	-0.5602883839554679	-0.2522028988299895	2.119759114994995	-0.5301061570966712	-0.290848049794888	2.048225556660117	-0.46567189204132525	-0.29526949046423073	1.9669782036806935	-0.4344786032409024	-0.30267129986426466	1.8756661740059224	-0.3953350333284239	-0.2413607987178151	2.0574211124932464	-0.6562251270320647	-0.241718569971815	1.9653844072074678	-0.6660712080671654	-0.2330102812382903	1.8837043334976504	-0.6789861252916484
12	0.4	-0.26507521800161277	1.8778913104413915	-0.5404038756709179	-0.28115514009840725	1.8736200260180462	-0.4699906461727877	-0.2952877413608756	1.7277774476439676	-0.39314781465347226	-0.3257738292129916	1.6021503980656941	-0.36940706748204016							-0.32952533231943026	1.59001853922602	-0.3822508152780784	-0.2506333829305289	1.8804638052229856	-0.6028287685597958	-0.2643354493224134	1.7307261807390628	-0.6003978677957814													-0.2691309805242792	2.0525141018142645	-0.5573769492641301	-0.2521938243939548	2.119796361651086	-0.5301433670307777	-0.2906236447697214	2.048099318271967	-0.4650004936098779	-0.2962823421443293	1.9535786356362463	-0.4276511312594559	-0.30203962014523555	1.8743412790693295	-0.39656113741093946	-0.24138814208229223	2.0573088178051275	-0.65630787496852	-0.24161293505383144	1.9671740172728063	-0.6660062581252022	-0.23301633946890413	1.88264316918187	-0.6789260997806592
